<?xml version="1.0" encoding="UTF-8" standalone="no" ?>
<!DOCTYPE svg PUBLIC "-//W3C//DTD SVG 1.1//EN" "http://www.w3.org/Graphics/SVG/1.1/DTD/svg11.dtd">
<svg xmlns="http://www.w3.org/2000/svg" xmlns:xlink="http://www.w3.org/1999/xlink" version="1.1" width="262.62" height="117.4681" xml:space="preserve">
<desc>Created with Fabric.js 1.6.0-rc.1</desc>
<defs></defs>
  <g transform="translate(136 72.16) scale(0.41 0.36)">
   <text font-family="Harrington" font-size="40" font-weight="bold" style="stroke: none; stroke-width: 1; stroke-dasharray: none; stroke-linecap: butt; stroke-linejoin: miter; stroke-miterlimit: 10; fill: #000000; fill-rule: nonzero; opacity: 1;" ><tspan x="-99.1" y="8.98" style="stroke: none; stroke-width: 0; stroke-dasharray: none; stroke-linecap: butt; stroke-linejoin: miter; stroke-miterlimit: 4; fill: #000000; fill-rule: ; opacity: 1;">S</tspan><tspan x="-76.09" y="8.98" style="stroke: none; stroke-width: 0; stroke-dasharray: none; stroke-linecap: butt; stroke-linejoin: miter; stroke-miterlimit: 4; fill: #000000; fill-rule: ; opacity: 1;">i</tspan><tspan x="-65.16" y="8.98" style="stroke: none; stroke-width: 0; stroke-dasharray: none; stroke-linecap: butt; stroke-linejoin: miter; stroke-miterlimit: 4; fill: #000000; fill-rule: ; opacity: 1;">m</tspan><tspan x="-35.27" y="8.98" style="stroke: none; stroke-width: 0; stroke-dasharray: none; stroke-linecap: butt; stroke-linejoin: miter; stroke-miterlimit: 4; fill: #000000; fill-rule: ; opacity: 1;">p</tspan><tspan x="-12.89" y="8.98" style="stroke: none; stroke-width: 0; stroke-dasharray: none; stroke-linecap: butt; stroke-linejoin: miter; stroke-miterlimit: 4; fill: #000000; fill-rule: ; opacity: 1;">o</tspan><tspan x="10.04" y="8.98" style="stroke: none; stroke-width: 0; stroke-dasharray: none; stroke-linecap: butt; stroke-linejoin: miter; stroke-miterlimit: 4; fill: #000000; fill-rule: ; opacity: 1;">C</tspan><tspan x="34.26" y="8.98" style="stroke: none; stroke-width: 0; stroke-dasharray: none; stroke-linecap: butt; stroke-linejoin: miter; stroke-miterlimit: 4; fill: #000000; fill-rule: ; opacity: 1;">o</tspan><tspan x="57.19" y="8.98" style="stroke: none; stroke-width: 0; stroke-dasharray: none; stroke-linecap: butt; stroke-linejoin: miter; stroke-miterlimit: 4; fill: #000000; fill-rule: ; opacity: 1;">d</tspan><tspan x="79.45" y="8.98" style="stroke: none; stroke-width: 0; stroke-dasharray: none; stroke-linecap: butt; stroke-linejoin: miter; stroke-miterlimit: 4; fill: #000000; fill-rule: ; opacity: 1;">e</tspan></text>
 </g>
<g style="stroke: none; stroke-width: 1; stroke-dasharray: none; stroke-linecap: butt; stroke-linejoin: miter; stroke-miterlimit: 10; fill: none; fill-rule: nonzero; opacity: 1;" transform="translate(10 10) scale(0.19 0.19)" >
  <rect x="306.74" y="406.86" rx="0" ry="0" width="17.65" height="64.2" style="stroke: none; stroke-width: 1; stroke-dasharray: none; stroke-linecap: butt; stroke-linejoin: miter; stroke-miterlimit: 10; fill: #242D3C; fill-rule: nonzero; opacity: 1;" transform=" matrix(1 0 0 1 0 0) "/>
  <rect x="187.57" y="406.86" rx="0" ry="0" width="17.65" height="64.2" style="stroke: none; stroke-width: 1; stroke-dasharray: none; stroke-linecap: butt; stroke-linejoin: miter; stroke-miterlimit: 10; fill: #242D3C; fill-rule: nonzero; opacity: 1;" transform=" matrix(1 0 0 1 0 0) "/>
  <rect x="175.74" y="398.06" rx="0" ry="0" width="160.51" height="17.65" style="stroke: none; stroke-width: 1; stroke-dasharray: none; stroke-linecap: butt; stroke-linejoin: miter; stroke-miterlimit: 10; fill: #242D3C; fill-rule: nonzero; opacity: 1;" transform=" matrix(1 0 0 1 0 0) "/>
  <rect x="175.74" y="430.16" rx="0" ry="0" width="160.51" height="17.65" style="stroke: none; stroke-width: 1; stroke-dasharray: none; stroke-linecap: butt; stroke-linejoin: miter; stroke-miterlimit: 10; fill: #242D3C; fill-rule: nonzero; opacity: 1;" transform=" matrix(1 0 0 1 0 0) "/>
  <rect x="175.74" y="462.26" rx="0" ry="0" width="160.51" height="17.65" style="stroke: none; stroke-width: 1; stroke-dasharray: none; stroke-linecap: butt; stroke-linejoin: miter; stroke-miterlimit: 10; fill: #242D3C; fill-rule: nonzero; opacity: 1;" transform=" matrix(1 0 0 1 0 0) "/>
  <rect x="220.31" y="494.34" rx="0" ry="0" width="71.33" height="17.66" style="stroke: none; stroke-width: 1; stroke-dasharray: none; stroke-linecap: butt; stroke-linejoin: miter; stroke-miterlimit: 10; fill: #242D3C; fill-rule: nonzero; opacity: 1;" transform=" matrix(1 0 0 1 0 0) "/>
  <path d="M 324.382 415.7 H 187.556 v -8.827 c 0 -30.802 -13.094 -60.411 -35.924 -81.226 l -1.129 -0.988 c -0.991 -0.865 -1.958 -1.718 -2.926 -2.516 l -0.333 -0.289 c -33.426 -30.566 -52.595 -73.992 -52.595 -119.148 c 0 -88.965 72.374 -161.339 161.334 -161.339 c 88.973 0 161.352 72.374 161.352 161.339 c 0 45.128 -19.185 88.553 -52.639 119.148 l -0.302 0.266 c -1.014 0.847 -2.033 1.761 -3.059 2.685 l -1.014 0.911 c -22.817 20.7 -35.935 50.301 -35.935 81.16 v 8.824 H 324.382 z M 204.902 398.046 h 102.136 c 2.281 -32.602 17.106 -63.357 41.469 -85.463 l 1.029 -0.922 c 1.134 -1.019 2.263 -2.022 3.382 -2.967 c 29.716 -27.251 46.758 -65.874 46.758 -105.992 c 0 -79.227 -64.463 -143.685 -143.695 -143.685 c -79.227 0 -143.677 64.458 -143.677 143.685 c 0 40.143 17.014 78.756 46.697 105.976 c 1.039 0.865 2.081 1.777 3.141 2.706 l 1.234 1.078 C 187.819 334.75 202.621 365.509 204.902 398.046 z" style="stroke: none; stroke-width: 1; stroke-dasharray: none; stroke-linecap: butt; stroke-linejoin: miter; stroke-miterlimit: 10; fill: #242D3C; fill-rule: nonzero; opacity: 1;" transform=" matrix(1 0 0 1 0 0) " stroke-linecap="round" />
  <rect x="247.16" y="364.5" rx="0" ry="0" width="17.65" height="42.37" style="stroke: none; stroke-width: 1; stroke-dasharray: none; stroke-linecap: butt; stroke-linejoin: miter; stroke-miterlimit: 10; fill: #242D3C; fill-rule: nonzero; opacity: 1;" transform=" matrix(1 0 0 1 0 0) "/>
  <path d="M 313.843 293.946 c 2.885 1.224 6.075 1.879 9.393 1.879 c 13.663 0 24.709 -11.052 24.709 -24.694 c 0 -1.894 -0.218 -3.727 -0.609 -5.45 c 5.97 -0.246 11.901 -2.673 16.456 -7.227 c 9.152 -9.132 9.638 -23.616 1.444 -33.334 c 8.463 -3.907 14.331 -12.48 14.331 -22.42 c 0 -9.951 -5.868 -18.511 -14.331 -22.426 c 8.192 -9.7 7.708 -24.197 -1.444 -33.324 c -4.552 -4.564 -10.486 -6.976 -16.456 -7.204 c 0.392 -1.764 0.609 -3.599 0.609 -5.489 c 0 -13.642 -11.046 -24.714 -24.709 -24.714 c -3.318 0 -6.508 0.694 -9.393 1.887 c -2.253 -11.369 -12.234 -19.95 -24.251 -19.95 c -13.652 0 -24.709 11.059 -24.709 24.694 v 173.038 c 0 13.652 11.057 24.694 24.709 24.694 C 301.606 313.909 311.6 305.318 313.843 293.946 z" style="stroke: none; stroke-width: 1; stroke-dasharray: none; stroke-linecap: butt; stroke-linejoin: miter; stroke-miterlimit: 10; fill: #F96232; fill-rule: nonzero; opacity: 0;" transform=" matrix(1 0 0 1 0 0) " stroke-linecap="round" />
  <path d="M 198.144 293.946 c -2.906 1.224 -6.085 1.879 -9.398 1.879 c -13.658 0 -24.712 -11.052 -24.712 -24.694 c 0 -1.894 0.212 -3.727 0.602 -5.45 c -5.96 -0.246 -11.873 -2.673 -16.453 -7.227 c -9.116 -9.132 -9.608 -23.616 -1.439 -33.334 c -8.471 -3.907 -14.346 -12.48 -14.346 -22.42 c 0 -9.951 5.878 -18.511 14.346 -22.426 c -8.169 -9.7 -7.677 -24.197 1.439 -33.324 c 4.582 -4.564 10.493 -6.976 16.453 -7.204 c -0.389 -1.764 -0.602 -3.599 -0.602 -5.489 c 0 -13.642 11.054 -24.714 24.712 -24.714 c 3.31 0 6.492 0.694 9.398 1.887 c 2.214 -11.369 12.221 -19.95 24.261 -19.95 c 13.652 0 24.681 11.059 24.681 24.694 v 173.038 c 0 13.652 -11.028 24.694 -24.681 24.694 C 210.365 313.909 200.358 305.318 198.144 293.946 z" style="stroke: none; stroke-width: 1; stroke-dasharray: none; stroke-linecap: butt; stroke-linejoin: miter; stroke-miterlimit: 10; fill: #F96232; fill-rule: nonzero; opacity: 0;" transform=" matrix(1 0 0 1 0 0) " stroke-linecap="round" />
  <path d="M 354.424 379.906 l -8.589 -15.424 c 4.964 -2.76 9.851 -5.786 14.531 -8.991 l 9.976 14.569 C 365.209 373.573 359.856 376.888 354.424 379.906 z M 157.235 379.763 c -5.417 -3.028 -10.77 -6.349 -15.892 -9.869 l 9.994 -14.556 c 4.68 3.213 9.564 6.244 14.513 9.011 L 157.235 379.763 z M 385.275 358.794 L 374.013 345.2 c 4.362 -3.617 8.622 -7.488 12.641 -11.492 l 12.465 12.508 C 394.713 350.602 390.057 354.836 385.275 358.794 z M 126.425 358.597 c -4.767 -3.965 -9.416 -8.207 -13.824 -12.618 l 12.495 -12.475 c 4.022 4.024 8.266 7.898 12.618 11.515 L 126.425 358.597 z M 411.758 332.41 l -13.563 -11.31 c 3.633 -4.349 7.107 -8.929 10.335 -13.609 l 14.538 10.017 C 419.538 322.634 415.731 327.646 411.758 332.41 z M 100.001 332.147 c -3.965 -4.774 -7.764 -9.797 -11.282 -14.925 l 14.561 -9.989 c 3.21 4.682 6.676 9.272 10.301 13.632 L 100.001 332.147 z M 432.957 301.621 l -15.404 -8.635 c 2.775 -4.948 5.345 -10.081 7.644 -15.27 l 16.141 7.171 C 438.817 290.565 435.998 296.197 432.957 301.621 z M 78.863 301.319 c -3.031 -5.425 -5.837 -11.059 -8.358 -16.755 l 16.146 -7.14 c 2.299 5.197 4.861 10.34 7.626 15.283 L 78.863 301.319 z M 448.125 267.443 l -16.73 -5.635 c 1.807 -5.361 3.382 -10.885 4.687 -16.417 l 17.185 4.052 C 451.832 255.51 450.101 261.562 448.125 267.443 z M 63.736 267.117 c -1.974 -5.898 -3.699 -11.95 -5.123 -18.007 l 17.185 -4.037 c 1.3 5.527 2.872 11.052 4.675 16.425 L 63.736 267.117 z M 456.716 231.05 l -17.48 -2.45 c 0.786 -5.624 1.321 -11.346 1.59 -17.014 l 17.636 0.842 C 458.171 218.631 457.582 224.898 456.716 231.05 z M 55.188 230.707 c -0.85 -6.154 -1.423 -12.421 -1.702 -18.629 l 17.633 -0.796 c 0.259 5.67 0.781 11.392 1.559 17.011 L 55.188 230.707 z M 440.865 194.49 c -0.241 -5.658 -0.755 -11.382 -1.526 -17.014 l 17.498 -2.386 c 0.84 6.17 1.403 12.439 1.672 18.637 L 440.865 194.49 z M 71.129 194.186 l -17.638 -0.814 c 0.294 -6.213 0.865 -12.48 1.713 -18.621 l 17.49 2.414 C 71.915 182.776 71.39 188.502 71.129 194.186 z M 436.252 160.683 c -1.285 -5.532 -2.847 -11.059 -4.644 -16.433 l 16.755 -5.588 c 1.964 5.893 3.676 11.96 5.084 18.02 L 436.252 160.683 z M 75.809 160.371 l -17.193 -4.022 c 1.416 -6.044 3.133 -12.104 5.105 -18.004 l 16.748 5.591 C 78.663 149.322 77.102 154.851 75.809 160.371 z M 425.461 128.314 c -2.286 -5.181 -4.838 -10.335 -7.598 -15.299 l 15.437 -8.573 c 3.026 5.445 5.824 11.085 8.32 16.763 L 425.461 128.314 z M 86.625 128.015 l -16.156 -7.135 c 2.514 -5.686 5.317 -11.325 8.343 -16.75 l 15.424 8.591 C 91.479 117.677 88.911 122.821 86.625 128.015 z M 408.891 98.47 c -3.2 -4.685 -6.659 -9.277 -10.276 -13.65 l 13.601 -11.256 c 3.965 4.79 7.747 9.823 11.254 14.953 L 408.891 98.47 z M 103.229 98.206 L 88.67 88.222 c 3.517 -5.128 7.311 -10.15 11.282 -14.927 l 13.581 11.279 C 109.903 88.936 106.447 93.524 103.229 98.206 z M 387.133 72.163 c -4.004 -4.022 -8.246 -7.908 -12.595 -11.548 l 11.318 -13.548 c 4.764 3.981 9.405 8.236 13.793 12.641 L 387.133 72.163 z M 125.045 71.948 l -12.49 -12.483 c 4.393 -4.393 9.042 -8.637 13.824 -12.613 l 11.292 13.573 C 133.299 64.056 129.057 67.932 125.045 71.948 z M 360.926 50.273 c -4.672 -3.22 -9.549 -6.264 -14.49 -9.037 l 8.637 -15.398 c 5.417 3.039 10.762 6.372 15.882 9.907 L 360.926 50.273 z M 151.293 50.106 l -9.997 -14.548 c 5.115 -3.52 10.468 -6.845 15.89 -9.879 l 8.617 15.411 C 160.852 43.855 155.968 46.893 151.293 50.106 z M 331.174 33.574 c -5.179 -2.304 -10.537 -4.398 -15.905 -6.208 l 5.645 -16.727 c 5.891 1.987 11.758 4.278 17.441 6.81 L 331.174 33.574 z M 181.084 33.446 l -7.158 -16.143 c 5.691 -2.516 11.558 -4.797 17.446 -6.781 l 5.627 16.735 C 191.631 29.066 186.276 31.144 181.084 33.446 z M 298.852 22.658 c -5.519 -1.308 -11.167 -2.371 -16.783 -3.162 l 2.458 -17.485 c 6.154 0.868 12.342 2.035 18.394 3.466 L 298.852 22.658 z M 213.424 22.568 l -4.05 -17.185 c 6.052 -1.423 12.237 -2.58 18.391 -3.443 l 2.442 17.49 C 224.586 20.216 218.939 21.27 213.424 22.568 z M 265.075 17.881 l -0.778 -0.036 c -5.734 -0.259 -11.446 -0.253 -17.083 0.01 l -0.809 -17.638 c 6.162 -0.284 12.403 -0.292 18.706 -0.008 l 0.786 0.041 L 265.075 17.881 z" style="stroke: none; stroke-width: 1; stroke-dasharray: none; stroke-linecap: butt; stroke-linejoin: miter; stroke-miterlimit: 10; fill: #242D3C; fill-rule: nonzero; opacity: 1;" transform=" matrix(1 0 0 1 0 0) " stroke-linecap="round" />
</g>
<g style="stroke: none; stroke-width: 1; stroke-dasharray: none; stroke-linecap: butt; stroke-linejoin: miter; stroke-miterlimit: 10; fill: none; fill-rule: nonzero; opacity: 1;" transform="translate(31.089999999999915 22.859999999999953) rotate(0.63) scale(0.11 0.11)" >
  <circle cx="254" cy="254" r="254" style="stroke: none; stroke-width: 1; stroke-dasharray: none; stroke-linecap: butt; stroke-linejoin: miter; stroke-miterlimit: 10; fill: #c94e63; fill-rule: nonzero; opacity: 1;" transform="  matrix(1 0 0 1 0 0) "/>
  <path d="M 261.2 316.6 c -1.4 -6.6 9.2 -23.4 1.2 -28.2 c -7 -4.2 -13.6 6.2 -15.2 11.8 c -2.6 8.6 -0.8 23.4 7.6 28.6 c 8.2 5.2 19.8 1.8 26 -4.8 c 11.8 -12.8 13 -46.8 -1.2 -58.4 c -18.4 -15 -42.6 5.8 -51.2 21.8 c -1.8 3.6 3.4 6.6 5.4 3.2 c 5.8 -11 15.6 -21.2 28.4 -22.8 c 19.2 -2.4 21.4 18.8 20.4 33.2 c -0.4 7.2 -2.6 18.4 -9.8 22 c -6.8 3.2 -14.8 2.4 -18.4 -4.6 c -1.8 -3.6 -2.6 -12.8 -1.2 -16.2 c 1.8 -1.6 3.8 -3.2 5.6 -4.8 c -0.4 1.2 -0.6 2.2 -1 3.4 c -0.4 2.8 -2 5.4 -2.6 8.2 c -0.8 3.4 -0.6 6.2 0.2 9.6 C 256 322.2 262 320.4 261.2 316.6 L 261.2 316.6 z" style="stroke: none; stroke-width: 1; stroke-dasharray: none; stroke-linecap: butt; stroke-linejoin: miter; stroke-miterlimit: 10; fill: #2C424F; fill-rule: nonzero; opacity: 1;" transform=" matrix(1 0 0 1 0 0) " stroke-linecap="round" />
  <path d="M 251.4 327.4 c -10.8 -10.8 -16.8 -27.8 -1 -37.2 c 6.8 -4 15.8 -6 18.4 3.8 c 1.8 6.4 -0.6 13.8 -1.8 20 c -0.8 4 5.2 5.6 6 1.6 c 1.8 -9.6 5.2 -20.6 -0.8 -29.4 c -5.2 -7.6 -12.4 -7.2 -20.2 -3.8 c -22.8 10.4 -21.2 33.2 -5 49.4 C 249.8 334.6 254.2 330.2 251.4 327.4 L 251.4 327.4 z" style="stroke: none; stroke-width: 1; stroke-dasharray: none; stroke-linecap: butt; stroke-linejoin: miter; stroke-miterlimit: 10; fill: #2C424F; fill-rule: nonzero; opacity: 1;" transform=" matrix(1 0 0 1 0 0) " stroke-linecap="round" />
  <path d="M 272.4 317.4 c 8.4 -10.4 13.6 -31.6 3 -42.4 c -10.2 -10.4 -25.6 -1 -33 7.8 c -9 10.6 -17.4 25.4 -15.2 39.8 c 2 13 13.6 20.6 26.4 20.8 c 17 0.4 31.6 -9.6 40 -24.2 c 8.2 -14.6 5.4 -37 -2.4 -51 c -18.8 -34 -58 -14.6 -70.4 14.6 c -7.2 16.8 -7.2 40.4 1.6 56.6 c 8.6 15.8 27.6 18.4 43.2 12.6 c 3.8 -1.4 2.2 -7.4 -1.6 -6 c -15.8 5.8 -32.8 2 -38.6 -15.2 c -4.2 -12.4 -4.8 -28.2 -0.6 -40.8 c 4.4 -13 13.4 -24.8 26 -31 c 20 -9.6 35.8 5.4 40.2 24.8 c 3.8 16.8 -0.8 33.4 -13.6 44.8 c -11 10 -37 14.4 -43.4 -3.6 c -3.8 -11.2 2.8 -24.2 9 -33 c 1.8 -2.6 4 -5.4 6.2 -7.6 c 6.6 -6.4 9.8 -7.4 17.6 -3.6 c 7.6 3.8 8 5.6 7.8 13.4 c -0.2 7 -2.2 13.2 -6.6 18.8 C 265.6 316 269.8 320.4 272.4 317.4 L 272.4 317.4 z" style="stroke: none; stroke-width: 1; stroke-dasharray: none; stroke-linecap: butt; stroke-linejoin: miter; stroke-miterlimit: 10; fill: #2C424F; fill-rule: nonzero; opacity: 1;" transform=" matrix(1 0 0 1 0 0) " stroke-linecap="round" />
  <path d="M 282.2 343 c -13.8 13.4 -40.4 27.6 -57.2 11.6 c -18.4 -17.8 -17 -53 -9 -75.4 c 9 -25.8 50.2 -44.4 71.6 -22.4 c 8.6 8.8 13.4 25 14.6 37.2 c 1.6 14.8 -4.8 30.2 -15.4 40.2 c -2.8 2.8 1.6 7.2 4.4 4.4 c 10.8 -10.4 17.8 -25.8 17.6 -41 c -0.2 -13.6 -6.2 -33.8 -15.2 -44.2 c -20.4 -23.4 -64 -11.4 -78.6 12.8 c -14.8 24.6 -16.2 69.6 4.4 91.2 c 19.4 20.4 50.4 6.4 67.2 -10.2 C 289.4 344.6 285 340.2 282.2 343 L 282.2 343 z" style="stroke: none; stroke-width: 1; stroke-dasharray: none; stroke-linecap: butt; stroke-linejoin: miter; stroke-miterlimit: 10; fill: #2C424F; fill-rule: nonzero; opacity: 1;" transform=" matrix(1 0 0 1 0 0) " stroke-linecap="round" />
  <path d="M 310.4 291.4 c 2.6 15.2 -0.4 32.8 -8.4 46.2 c -8.8 14.4 -24.6 23.2 -40 29.2 c -3.6 1.4 -2 7.4 1.6 6 c 16.8 -6.6 34 -16 43.6 -32 c 9 -15 12 -34 9.2 -51 C 315.6 285.8 309.6 287.4 310.4 291.4 L 310.4 291.4 z" style="stroke: none; stroke-width: 1; stroke-dasharray: none; stroke-linecap: butt; stroke-linejoin: miter; stroke-miterlimit: 10; fill: #2C424F; fill-rule: nonzero; opacity: 1;" transform=" matrix(1 0 0 1 0 0) " stroke-linecap="round" />
  <path d="M 309.2 263.6 c -5.6 -12.6 -13.6 -25 -27.2 -29.8 c -14 -5 -32 -3 -45.8 1.8 C 206 246 187.2 275 190 307 c 0.4 4 6.6 4 6.2 0 c -2.6 -29 13.8 -55.8 41.6 -65.4 c 11.4 -3.8 24.2 -5.4 36 -3.4 c 15.6 2.8 24 15 30 28.6 C 305.6 270.4 310.8 267.2 309.2 263.6 L 309.2 263.6 z" style="stroke: none; stroke-width: 1; stroke-dasharray: none; stroke-linecap: butt; stroke-linejoin: miter; stroke-miterlimit: 10; fill: #2C424F; fill-rule: nonzero; opacity: 1;" transform=" matrix(1 0 0 1 0 0) " stroke-linecap="round" />
  <path d="M 192.8 318.4 c -0.4 20.2 6.6 43 24.2 54.8 c 21.8 14.6 47.6 11.6 70 0.4 c 3.6 -1.8 0.4 -7.2 -3.2 -5.4 c -20.2 10 -44 13.2 -63.8 -0.4 c -15.8 -10.8 -21.6 -31.4 -21.2 -49.6 C 199.2 314.4 193 314.4 192.8 318.4 L 192.8 318.4 z" style="stroke: none; stroke-width: 1; stroke-dasharray: none; stroke-linecap: butt; stroke-linejoin: miter; stroke-miterlimit: 10; fill: #2C424F; fill-rule: nonzero; opacity: 1;" transform=" matrix(1 0 0 1 0 0) " stroke-linecap="round" />
  <path d="M 189.8 303.8 c -10.8 25.2 -5.2 52.2 12.8 72.4 c 2.6 3 7 -1.4 4.4 -4.4 c -16.2 -18 -21.6 -42.2 -11.8 -64.8 C 196.8 303.4 191.4 300.2 189.8 303.8 L 189.8 303.8 z" style="stroke: none; stroke-width: 1; stroke-dasharray: none; stroke-linecap: butt; stroke-linejoin: miter; stroke-miterlimit: 10; fill: #2C424F; fill-rule: nonzero; opacity: 1;" transform=" matrix(1 0 0 1 0 0) " stroke-linecap="round" />
  <path d="M 213.2 382.4 c 17 12.4 38.6 12.8 58.2 6.8 c 3.8 -1.2 2.2 -7.2 -1.6 -6 c -18.2 5.4 -37.6 5.2 -53.4 -6.2 C 213.2 374.6 210 380 213.2 382.4 L 213.2 382.4 z" style="stroke: none; stroke-width: 1; stroke-dasharray: none; stroke-linecap: butt; stroke-linejoin: miter; stroke-miterlimit: 10; fill: #2C424F; fill-rule: nonzero; opacity: 1;" transform=" matrix(1 0 0 1 0 0) " stroke-linecap="round" />
  <path d="M 180.4 340.8 c -4 -9 -5 -21.6 -2.6 -31.2 c 1.6 -6.2 4.4 -12 6 -18.2 c 2 -8.4 2 -18.2 10.6 -23.4 c 3.4 -2 0.4 -7.4 -3.2 -5.4 c -6.4 3.8 -9.2 9 -11.2 16.2 c -2.6 9.6 -5.8 19.4 -8.2 29.2 c -3 11.4 -1.6 25.2 3.2 36 C 176.6 347.6 182 344.4 180.4 340.8 L 180.4 340.8 z" style="stroke: none; stroke-width: 1; stroke-dasharray: none; stroke-linecap: butt; stroke-linejoin: miter; stroke-miterlimit: 10; fill: #2C424F; fill-rule: nonzero; opacity: 1;" transform=" matrix(1 0 0 1 0 0) " stroke-linecap="round" />
  <path d="M 189 268.8 c 11.6 -27.2 42 -41 69.8 -46.4 c 33.4 -6.6 54.4 19.8 66.6 47.4 c 1.6 3.6 7 0.4 5.4 -3.2 c -12 -27 -34 -55.2 -66.8 -51.4 c -31 3.6 -67.4 20.4 -80.2 50.4 C 182.2 269.4 187.4 272.6 189 268.8 L 189 268.8 z" style="stroke: none; stroke-width: 1; stroke-dasharray: none; stroke-linecap: butt; stroke-linejoin: miter; stroke-miterlimit: 10; fill: #2C424F; fill-rule: nonzero; opacity: 1;" transform=" matrix(1 0 0 1 0 0) " stroke-linecap="round" />
  <path d="M 298 243.2 c 21 24.6 38.6 74 11.8 100.2 c -2.8 2.8 1.6 7.2 4.4 4.4 c 29.4 -29 11.4 -81.8 -11.8 -109 C 299.8 235.8 295.4 240.2 298 243.2 L 298 243.2 z" style="stroke: none; stroke-width: 1; stroke-dasharray: none; stroke-linecap: butt; stroke-linejoin: miter; stroke-miterlimit: 10; fill: #2C424F; fill-rule: nonzero; opacity: 1;" transform=" matrix(1 0 0 1 0 0) " stroke-linecap="round" />
  <path d="M 330.8 290.8 c 10.4 37.2 -10.2 83.2 -51.2 89.6 c -4 0.6 -2.2 6.6 1.6 6 c 23.4 -3.8 42.6 -22.4 52.6 -43.4 c 7.8 -16.2 7.6 -36.8 3 -53.8 C 335.8 285.4 329.8 287 330.8 290.8 L 330.8 290.8 z" style="stroke: none; stroke-width: 1; stroke-dasharray: none; stroke-linecap: butt; stroke-linejoin: miter; stroke-miterlimit: 10; fill: #2C424F; fill-rule: nonzero; opacity: 1;" transform=" matrix(1 0 0 1 0 0) " stroke-linecap="round" />
  <path d="M 165.8 287.8 c 7.8 -9.6 10.4 -20.6 14.8 -32 c 6.4 -17.2 20 -26.4 36.2 -33.6 c 3.6 -1.6 0.4 -7 -3.2 -5.4 c -12 5.4 -24 12.2 -31.8 23.2 c -9.4 13.2 -9.8 30.8 -20.2 43.4 C 158.8 286.4 163.2 290.8 165.8 287.8 L 165.8 287.8 z" style="stroke: none; stroke-width: 1; stroke-dasharray: none; stroke-linecap: butt; stroke-linejoin: miter; stroke-miterlimit: 10; fill: #2C424F; fill-rule: nonzero; opacity: 1;" transform=" matrix(1 0 0 1 0 0) " stroke-linecap="round" />
  <path d="M 164.2 246.6 c 10.4 -16.2 25.8 -30.8 44.4 -37.2 c 17.8 -6 38.8 -3 57.4 -5 c 12.8 -1.4 22.6 0.6 33.8 7 c 9.4 5.4 13.6 10.6 19.2 19.6 c 4 6.6 9.4 12.2 13 19 c 6 10.8 9.2 22.4 10.4 34.6 c 0.4 4 6.6 4 6.2 0 c -1 -10.4 -3.2 -20.4 -7.6 -30.2 c -4.6 -10.4 -12.2 -18.4 -17.6 -28 c -9.2 -16.4 -28.2 -28.6 -47.4 -29 c -12.4 -0.2 -24.6 2.8 -37 2.6 c -12.6 0 -24.4 0 -36 4.8 c -18.4 7.8 -33.4 21.8 -44.2 38.4 C 156.6 246.8 162 250 164.2 246.6 L 164.2 246.6 z" style="stroke: none; stroke-width: 1; stroke-dasharray: none; stroke-linecap: butt; stroke-linejoin: miter; stroke-miterlimit: 10; fill: #2C424F; fill-rule: nonzero; opacity: 1;" transform=" matrix(1 0 0 1 0 0) " stroke-linecap="round" />
  <path d="M 348.4 246.8 c -9.6 -26.4 -26.6 -46 -52.4 -56.8 c -26.2 -11 -55 -12.6 -80.2 1.6 c -3.4 2 -0.4 7.4 3.2 5.4 c 23.6 -13.2 50.4 -11.4 74.8 -1.2 c 23.8 10 40 28.6 48.8 52.8 C 343.8 252.2 349.8 250.6 348.4 246.8 L 348.4 246.8 z" style="stroke: none; stroke-width: 1; stroke-dasharray: none; stroke-linecap: butt; stroke-linejoin: miter; stroke-miterlimit: 10; fill: #2C424F; fill-rule: nonzero; opacity: 1;" transform=" matrix(1 0 0 1 0 0) " stroke-linecap="round" />
  <path d="M 349.4 220 c -15.8 -33.2 -59.8 -51.6 -95.2 -49.8 c -41 2 -72.4 25.2 -95 58 c -2.2 3.2 3.2 6.4 5.4 3.2 c 21.2 -30.6 51.6 -53 89.8 -55 c 33.4 -1.8 75 15.4 90 46.8 C 345.8 226.8 351 223.6 349.4 220 L 349.4 220 z" style="stroke: none; stroke-width: 1; stroke-dasharray: none; stroke-linecap: butt; stroke-linejoin: miter; stroke-miterlimit: 10; fill: #2C424F; fill-rule: nonzero; opacity: 1;" transform=" matrix(1 0 0 1 0 0) " stroke-linecap="round" />
  <path d="M 165 210 c 4.2 -6 7.6 -13 12.8 -18.4 c 5 -5.2 11.2 -9 17.4 -13 c 14.6 -9.2 30.2 -14.6 47.2 -17 c 34.8 -5 64 14.6 90.8 34.4 c 3.2 2.4 6.4 -3 3.2 -5.4 c -29.2 -21.6 -59.6 -41 -97.2 -34.8 c -17.8 3 -33.4 8.8 -48.6 18.6 c -14 9 -21 18.8 -30.4 32.4 C 157.2 210.2 162.6 213.4 165 210 L 165 210 z" style="stroke: none; stroke-width: 1; stroke-dasharray: none; stroke-linecap: butt; stroke-linejoin: miter; stroke-miterlimit: 10; fill: #2C424F; fill-rule: nonzero; opacity: 1;" transform=" matrix(1 0 0 1 0 0) " stroke-linecap="round" />
  <path d="M 334.2 175.8 c -24.4 -17 -51.6 -27.2 -81 -30.6 c -4 -0.4 -4 5.8 0 6.2 c 28.2 3.4 54.4 13.6 77.8 29.8 C 334.4 183.6 337.4 178.2 334.2 175.8 L 334.2 175.8 z" style="stroke: none; stroke-width: 1; stroke-dasharray: none; stroke-linecap: butt; stroke-linejoin: miter; stroke-miterlimit: 10; fill: #2C424F; fill-rule: nonzero; opacity: 1;" transform=" matrix(1 0 0 1 0 0) " stroke-linecap="round" />
  <path d="M 236 144.2 c -24.6 4.6 -46.6 11.8 -63 31.8 c -2.4 3 1.8 7.4 4.4 4.4 c 15.6 -19.2 36.6 -25.8 60.2 -30.2 C 241.6 149.6 240 143.6 236 144.2 L 236 144.2 z" style="stroke: none; stroke-width: 1; stroke-dasharray: none; stroke-linecap: butt; stroke-linejoin: miter; stroke-miterlimit: 10; fill: #2C424F; fill-rule: nonzero; opacity: 1;" transform=" matrix(1 0 0 1 0 0) " stroke-linecap="round" />
  <path d="M 198.4 146 c 16.6 -11.6 45 -14 64.4 -9.2 c 19.6 4.8 41 16 56.8 28.4 c 3.2 2.4 7.6 -2 4.4 -4.4 c -17.4 -13.6 -41.4 -26.8 -63.4 -30.8 c -20.4 -3.6 -48 -1.4 -65.2 10.8 C 192 143 195.2 148.4 198.4 146 L 198.4 146 z" style="stroke: none; stroke-width: 1; stroke-dasharray: none; stroke-linecap: butt; stroke-linejoin: miter; stroke-miterlimit: 10; fill: #2C424F; fill-rule: nonzero; opacity: 1;" transform=" matrix(1 0 0 1 0 0) " stroke-linecap="round" />
  <path d="M 304 135.8 c -1.8 -5 -4.2 -5.6 -8.8 -8.2 c -6.6 -3.6 -14 -7.6 -21.4 -9.8 c -11.6 -3.4 -31 -4.4 -41.6 1.8 c -3.4 2 -0.4 7.4 3.2 5.4 c 8 -4.6 28.4 -3.4 36.8 -1 c 4.4 1.2 24 8.6 25.8 13.6 C 299.2 141.2 305.2 139.6 304 135.8 L 304 135.8 z" style="stroke: none; stroke-width: 1; stroke-dasharray: none; stroke-linecap: butt; stroke-linejoin: miter; stroke-miterlimit: 10; fill: #2C424F; fill-rule: nonzero; opacity: 1;" transform=" matrix(1 0 0 1 0 0) " stroke-linecap="round" />
  <polygon points="116.8,161.6 108.2,161.6 108.2,108.2 161.6,108.2 161.6,116.8 116.8,116.8 " style="stroke: none; stroke-width: 1; stroke-dasharray: none; stroke-linecap: butt; stroke-linejoin: miter; stroke-miterlimit: 10; fill: #FFFFFF; fill-rule: nonzero; opacity: 1;" transform="  matrix(1 0 0 1 0 0) "/>
  <polygon points="391.2,161.6 399.8,161.6 399.8,108.2 346.4,108.2 346.4,116.8 391.2,116.8 " style="stroke: none; stroke-width: 1; stroke-dasharray: none; stroke-linecap: butt; stroke-linejoin: miter; stroke-miterlimit: 10; fill: #FFFFFF; fill-rule: nonzero; opacity: 1;" transform="  matrix(1 0 0 1 0 0) "/>
  <polygon points="391.2,346.4 399.8,346.4 399.8,399.8 346.4,399.8 346.4,391.2 391.2,391.2 " style="stroke: none; stroke-width: 1; stroke-dasharray: none; stroke-linecap: butt; stroke-linejoin: miter; stroke-miterlimit: 10; fill: #FFFFFF; fill-rule: nonzero; opacity: 1;" transform="  matrix(1 0 0 1 0 0) "/>
  <polygon points="116.8,346.4 108.2,346.4 108.2,399.8 161.6,399.8 161.6,391.2 116.8,391.2 " style="stroke: none; stroke-width: 1; stroke-dasharray: none; stroke-linecap: butt; stroke-linejoin: miter; stroke-miterlimit: 10; fill: #FFFFFF; fill-rule: nonzero; opacity: 1;" transform="  matrix(1 0 0 1 0 0) "/>
</g>
  <g transform="translate(149.4 52) scale(0.67 0.54)">
   <text font-family="ADAMCG PRO" font-size="40" font-weight="normal" style="stroke: none; stroke-width: 1; stroke-dasharray: none; stroke-linecap: butt; stroke-linejoin: miter; stroke-miterlimit: 10; fill: #b53f53; fill-rule: nonzero; opacity: 1;" ><tspan x="-80.46" y="8.98" style="stroke: none; stroke-width: 0; stroke-dasharray: none; stroke-linecap: butt; stroke-linejoin: miter; stroke-miterlimit: 4; fill: #b53f53; fill-rule: ; opacity: 1;">J</tspan><tspan x="-63.66" y="8.98" style="stroke: none; stroke-width: 0; stroke-dasharray: none; stroke-linecap: butt; stroke-linejoin: miter; stroke-miterlimit: 4; fill: #b53f53; fill-rule: ; opacity: 1;">e</tspan><tspan x="-40.4" y="8.98" style="stroke: none; stroke-width: 0; stroke-dasharray: none; stroke-linecap: butt; stroke-linejoin: miter; stroke-miterlimit: 4; fill: #b53f53; fill-rule: ; opacity: 1;">a</tspan><tspan x="-12.61" y="8.98" style="stroke: none; stroke-width: 0; stroke-dasharray: none; stroke-linecap: butt; stroke-linejoin: miter; stroke-miterlimit: 4; fill: #b53f53; fill-rule: ; opacity: 1;">n</tspan><tspan x="16.9" y="8.98" style="stroke: none; stroke-width: 0; stroke-dasharray: none; stroke-linecap: butt; stroke-linejoin: miter; stroke-miterlimit: 4; fill: #b53f53; fill-rule: ; opacity: 1;">-</tspan><tspan x="35.58" y="8.98" style="stroke: none; stroke-width: 0; stroke-dasharray: none; stroke-linecap: butt; stroke-linejoin: miter; stroke-miterlimit: 4; fill: #b53f53; fill-rule: ; opacity: 1;">M</tspan><tspan x="69.68" y="8.98" style="stroke: none; stroke-width: 0; stroke-dasharray: none; stroke-linecap: butt; stroke-linejoin: miter; stroke-miterlimit: 4; fill: #b53f53; fill-rule: ; opacity: 1;">i</tspan></text>
 </g>
  <g transform="translate(228.19 50.22) scale(1.44 1.19)">
   <text font-family="Grand Hotel" font-size="40" font-weight="normal" style="stroke: none; stroke-width: 1; stroke-dasharray: none; stroke-linecap: butt; stroke-linejoin: miter; stroke-miterlimit: 10; fill: #0f0403; fill-rule: nonzero; opacity: 1;" ><tspan x="-17.07" y="8.98" style="stroke: none; stroke-width: 0; stroke-dasharray: none; stroke-linecap: butt; stroke-linejoin: miter; stroke-miterlimit: 4; fill: #0f0403; fill-rule: ; opacity: 1;">C</tspan><tspan x="2.44" y="8.98" style="stroke: none; stroke-width: 0; stroke-dasharray: none; stroke-linecap: butt; stroke-linejoin: miter; stroke-miterlimit: 4; fill: #0f0403; fill-rule: ; opacity: 1;">o</tspan></text>
 </g>
  <g transform="translate(227.59 74.11) scale(0.2 0.29)">
   <text font-family="ADAMCG PRO" font-size="40" font-weight="bold" style="stroke: none; stroke-width: 1; stroke-dasharray: none; stroke-linecap: butt; stroke-linejoin: miter; stroke-miterlimit: 10; fill: #41b5af; fill-rule: nonzero; opacity: 1;" ><tspan x="-125.63" y="8.98" style="stroke: none; stroke-width: 0; stroke-dasharray: none; stroke-linecap: butt; stroke-linejoin: miter; stroke-miterlimit: 4; fill: #41b5af; fill-rule: ; opacity: 1;">G</tspan><tspan x="-97.23" y="8.98" style="stroke: none; stroke-width: 0; stroke-dasharray: none; stroke-linecap: butt; stroke-linejoin: miter; stroke-miterlimit: 4; fill: #41b5af; fill-rule: ; opacity: 1;">e</tspan><tspan x="-73.96" y="8.98" style="stroke: none; stroke-width: 0; stroke-dasharray: none; stroke-linecap: butt; stroke-linejoin: miter; stroke-miterlimit: 4; fill: #41b5af; fill-rule: ; opacity: 1;">n</tspan><tspan x="-44.45" y="8.98" style="stroke: none; stroke-width: 0; stroke-dasharray: none; stroke-linecap: butt; stroke-linejoin: miter; stroke-miterlimit: 4; fill: #41b5af; fill-rule: ; opacity: 1;">-</tspan><tspan x="-25.78" y="8.98" style="stroke: none; stroke-width: 0; stroke-dasharray: none; stroke-linecap: butt; stroke-linejoin: miter; stroke-miterlimit: 4; fill: #41b5af; fill-rule: ; opacity: 1;">M</tspan><tspan x="8.32" y="8.98" style="stroke: none; stroke-width: 0; stroke-dasharray: none; stroke-linecap: butt; stroke-linejoin: miter; stroke-miterlimit: 4; fill: #41b5af; fill-rule: ; opacity: 1;">a</tspan><tspan x="36.11" y="8.98" style="stroke: none; stroke-width: 0; stroke-dasharray: none; stroke-linecap: butt; stroke-linejoin: miter; stroke-miterlimit: 4; fill: #41b5af; fill-rule: ; opacity: 1;">i</tspan><tspan x="46.89" y="8.98" style="stroke: none; stroke-width: 0; stroke-dasharray: none; stroke-linecap: butt; stroke-linejoin: miter; stroke-miterlimit: 4; fill: #41b5af; fill-rule: ; opacity: 1;">-</tspan><tspan x="65.57" y="8.98" style="stroke: none; stroke-width: 0; stroke-dasharray: none; stroke-linecap: butt; stroke-linejoin: miter; stroke-miterlimit: 4; fill: #41b5af; fill-rule: ; opacity: 1;">K</tspan><tspan x="91.68" y="8.98" style="stroke: none; stroke-width: 0; stroke-dasharray: none; stroke-linecap: butt; stroke-linejoin: miter; stroke-miterlimit: 4; fill: #41b5af; fill-rule: ; opacity: 1;">o</tspan></text>
 </g>
</svg>